<?xml version="1.0" encoding="UTF-8" standalone="no"?> <!-- Created with Vectornator for iOS (http://vectornator.io/) --><!DOCTYPE svg PUBLIC "-//W3C//DTD SVG 1.1//EN" "http://www.w3.org/Graphics/SVG/1.1/DTD/svg11.dtd">
<svg height="100%" viewBox="0 0 200 85" xmlns="http://www.w3.org/2000/svg" version="1.1" style="fill-rule:nonzero;clip-rule:evenodd;stroke-linecap:round;stroke-linejoin:round;" xmlns:xlink="http://www.w3.org/1999/xlink" xml:space="preserve" width="100%" xmlns:vectornator="http://vectornator.io">
<metadata>
<vectornator:setting value="true" key="VNSnapToGuides"/>
<vectornator:setting key="WDSnapToPoints" value="false"/>
<vectornator:setting value="false" key="WDDisplayWhiteBackground"/>
<vectornator:setting key="WDSnapToGrid" value="false"/>
<vectornator:setting key="WDRulersVisible" value="true"/>
<vectornator:setting value="true" key="WDGuidesVisible"/>
<vectornator:setting value="false" key="WDSnapToEdges"/>
<vectornator:setting key="WDIsolateActiveLayer" value="false"/>
<vectornator:setting value="true" key="VNDimensionsVisible"/>
<vectornator:setting key="WDCMYKEnabledKey" value="false"/>
<vectornator:setting key="UndoHistoryDisabled" value="true"/>
<vectornator:setting value="true" key="WDDynamicGuides"/>
<vectornator:setting key="WDOutlineMode" value="false"/>
<vectornator:setting key="IsTimeLapseWatermarkDisabled" value="false"/>
<vectornator:setting key="WDUnits" value="Pixels"/>
</metadata>
<defs>
<path d="M5.59065+0.50537L1.57928+0.50537L1.57928+23.4365C1.57928+24.921+0.663298+25.9002+0+26.4056C0.568541+27.0373+1.45294+28.6166+1.76879+29.5325C2.65319+28.8061+4.13771+28.0796+12.5711+25.0474C12.4131+24.1314+12.3184+22.4258+12.3816+21.2255L5.59065+23.4997L5.59065+13.1396L12.7606+13.1396L12.7606+9.41251L5.59065+9.41251L5.59065+0.50537ZM19.6778+25.1105C18.4776+25.1105+18.3196+24.8263+18.3196+23.0259L18.3196+15.7928C21.6993+13.5186+25.3001+10.8339+28.3007+8.18067L25.2369+4.76943C23.4049+6.82249+20.8781+9.34934+18.3196+11.434L18.3196+0.347442L14.3714+0.347442L14.3714+22.9627C14.3714+27.4479+15.4454+28.8061+19.1093+28.8061L23.247+28.8061C26.9425+28.8061+27.8585+26.3424+28.2375+19.8673C27.1952+19.6147+25.5212+18.825+24.5736+18.1301C24.3525+23.6892+24.163+25.1105+22.8996+25.1105L19.6778+25.1105Z" id="Mask"/>
<path d="M59.9495+12.729C58.6229+11.813+56.4119+10.6128+54.2641+9.60202C56.1908+7.64371+57.8016+5.36955+58.9071+2.74795L56.2539+1.42135L55.5907+1.57928L44.3462+1.57928L44.3462+4.99052L53.2849+4.99052C50.8212+8.30701+46.7151+11.055+42.451+12.5079C43.2407+13.2975+44.3146+14.7189+44.7568+15.6665C47.1257+14.7189+49.3999+13.5186+51.4845+11.9709C53.8219+13.2344+56.3171+14.6557+57.6753+15.698L59.9495+12.729ZM43.2723+22.3626L43.0512+19.0777L40.4611+19.4883L40.4611+16.4877L42.9248+16.4877L42.9248+13.108L40.4611+13.108L40.4611+8.62287L37.0183+8.62287L37.0183+13.108L35.2179+13.108C35.9444+11.2761+36.734+9.15982+37.3973+6.98042L43.2091+6.98042L43.2091+3.44283L38.3765+3.44283C38.5976+2.52685+38.7555+1.57928+38.945+0.663298L35.3759+0C35.2179+1.16867+35.0284+2.33733+34.7757+3.47442L31.1118+3.47442L31.1118+6.98042L33.9545+6.98042C33.386+9.03348+32.849+10.6443+32.5648+11.3076C32.091+12.6974+31.6172+13.5818+30.9855+13.7713C31.3645+14.6557+31.933+16.2982+32.1226+16.9615C32.3752+16.6772+33.5439+16.4877+34.5546+16.4877L37.0183+16.4877L37.0183+20.0253C34.6494+20.3727+32.4068+20.6886+30.7012+20.9097L31.4593+24.542C33.1017+24.2262+35.0284+23.8787+37.0183+23.4997L37.0183+29.4062L40.4611+29.4062L40.4611+22.8996L43.2723+22.3626ZM53.506+25.3632L53.506+19.5515L58.686+19.5515L58.686+16.1402L44.3462+16.1402L44.3462+19.5515L49.7473+19.5515L49.7473+25.3632L42.7669+25.3632L42.7669+28.8377L60.0442+28.8377L60.0442+25.3632L53.506+25.3632Z" id="Mask_2"/>
<path id="Mask_3" d="M70.4359+7.73847L74.0051+7.73847L74.0051+4.01137L62.4447+4.01137L62.4447+7.73847L66.614+7.73847L66.614+19.7726C64.9084+20.0884+63.3291+20.3411+62.0341+20.5622L62.8553+24.4157C66.235+23.7208+70.6886+22.8048+74.8579+21.8256L74.5104+18.2565C73.1522+18.5092+71.7941+18.7934+70.4359+19.0461L70.4359+7.73847ZM91.7877+5.65382L91.7877+1.86355L74.4473+1.86355L74.4473+5.65382L78.3323+5.65382C77.669+9.22299+76.7846+13.0449+76.0265+15.7296L86.9551+15.7296C86.5761+21.4466+86.1339+24.3209+85.3127+25.0158C84.8705+25.3632+84.3967+25.3948+83.6702+25.3948C82.5963+25.3948+80.1011+25.3632+77.6058+25.1737C78.4586+26.2792+79.0903+27.8901+79.1535+29.0587C81.4277+29.1219+83.7334+29.1851+85.06+29.0587C86.6077+28.9008+87.6816+28.585+88.6608+27.4479C89.9242+26.0581+90.4927+22.4889+90.9665+13.7713L91.0613+12.0973L80.9539+12.0973C81.3961+10.1074+81.8699+7.83323+82.2489+5.65382L91.7877+5.65382Z"/>
<path d="M106.349+19.6462C105.97+20.657+105.433+21.5414+104.517+22.3942C103.348+21.6677+102.369+20.7833+101.453+19.6462L106.349+19.6462ZM101.137+14.5294L106.949+14.5294L106.949+15.5401C106.949+15.8876+106.949+16.235+106.917+16.5824L101.137+16.5824L101.137+14.5294ZM101.137+9.69678L106.949+9.69678L106.949+11.7183L101.137+11.7183L101.137+9.69678ZM116.835+9.69678L116.835+11.7183L110.897+11.7183L110.897+9.69678L116.835+9.69678ZM116.835+16.5824L110.865+16.5824C110.897+16.235+110.897+15.8876+110.897+15.5717L110.897+14.5294L116.835+14.5294L116.835+16.5824ZM120.562+19.6462L120.562+6.66456L110.897+6.66456L110.897+4.80101L122.521+4.80101L122.521+1.45294L94.8515+1.45294L94.8515+4.80101L106.949+4.80101L106.949+6.66456L97.5995+6.66456L97.5995+19.6462L100.948+19.6462L98.0733+20.8149C99.0208+22.2047+100.095+23.4049+101.327+24.3525C99.5262+25.1105+97.2205+25.7423+94.1883+26.216C95.0095+27.1004+96.0202+28.6797+96.4624+29.5641C100.126+28.8377+102.906+27.7953+105.022+26.5951C109.539+28.585+115.351+29.0587+122.205+29.2167C122.426+27.9217+123.121+26.3424+123.816+25.4896C117.404+25.5212+112.224+25.3948+108.117+24.0366C109.286+22.7416+110.013+21.2255+110.423+19.6462L120.562+19.6462Z" id="Mask_4"/>
<path d="M151.611+0.979154L128.174+0.979154L128.174+4.32723L148.01+4.32723L148.01+5.84334L129.596+5.84334L129.596+8.43335L148.01+8.43335L148.01+9.91788L128.174+9.91788L128.174+13.2344L151.611+13.2344L151.611+0.979154ZM148.8+22.6785C149.905+21.1308+151.295+18.8882+152.495+16.8035L149.242+14.94C148.484+16.8667+147.063+19.4251+145.989+20.9728L148.8+22.6785ZM130.701+15.0663C130.038+17.2142+128.838+19.4883+127.322+20.9413L130.48+22.8048C132.091+21.1308+133.196+18.6039+133.923+16.2982L130.701+15.0663ZM138.377+13.8661C137.776+20.3727+136.829+24.5736+125.395+26.5635C126.153+27.3215+127.037+28.8377+127.385+29.8168C135.155+28.2375+138.756+25.5527+140.556+21.7941C142.956+26.0265+146.652+28.427+153.032+29.4694C153.443+28.3955+154.422+26.8478+155.18+26.0265C147.631+25.2685+143.714+22.4258+141.914+17.2142C142.104+16.1402+142.23+15.0347+142.356+13.8661L138.377+13.8661Z" id="Mask_5"/>
<path d="M166.74+3.60076C165.382+2.71636+162.634+1.3266+160.865+0.442198L158.749+3.15856C160.581+4.20088+163.266+5.68541+164.498+6.63298L166.74+3.60076ZM165.224+12.1289C163.834+11.2761+161.023+9.91788+159.286+9.06507L157.265+11.8446C159.128+12.8553+161.845+14.3399+163.14+15.2558L165.224+12.1289ZM160.865+29.1851C162.792+26.1213+164.782+22.5205+166.456+19.204L163.708+16.6772C161.813+20.3411+159.381+24.2577+157.707+26.6267L160.865+29.1851ZM181.364+24.8263L171.857+24.8263L171.857+20.1832L181.364+20.1832L181.364+24.8263ZM186.513+12.7922L186.513+9.19141L178.49+9.19141L178.49+4.86418C180.985+4.3904+183.323+3.79027+185.376+3.00063L182.47+0.0315856C178.996+1.42135+173.089+2.46368+167.72+3.00063C168.13+3.85344+168.636+5.30638+168.762+6.22236C170.752+6.03285+172.836+5.81175+174.921+5.49589L174.921+9.19141L166.519+9.19141L166.519+12.7922L174.921+12.7922L174.921+16.772L168.478+16.772L168.478+29.5325L171.857+29.5325L171.857+28.2375L181.364+28.2375L181.364+29.3746L184.934+29.3746L184.934+16.772L178.49+16.772L178.49+12.7922L186.513+12.7922Z" id="Mask_6"/>
<path d="M193.778+31.1434C197.694+29.9747+200+27.0689+200+23.4681C200+20.8149+198.831+19.1409+196.589+19.1409C194.915+19.1409+193.493+20.2148+193.493+21.9836C193.493+23.784+194.915+24.7947+196.494+24.7947C196.62+24.7947+196.747+24.7947+196.841+24.7631C196.652+26.4371+195.231+27.7953+192.767+28.585L193.778+31.1434Z" id="Mask_7"/>
<path d="M9.60202+59.9548C8.59128+58.4703+6.47505+56.2593+4.86418+54.7116L1.95831+56.7962C3.53759+58.4703+5.55907+60.8392+6.41188+62.3553L9.60202+59.9548ZM8.14908+71.0413C9.0019+71.7362+10.3601+73.2523+10.9286+74.0104C13.0764+72.4627+15.2243+70.4728+17.151+68.2302L17.151+78.843L21.036+78.843L21.036+67.3458C23.0259+69.4936+25.7738+72.2732+27.0689+73.9472L29.9747+71.2624C28.5534+69.5884+25.4896+66.7457+23.4681+64.7558L21.036+66.8405L21.036+62.8923C21.573+62.0079+22.1099+61.1235+22.5837+60.1759L29.2167+60.1759L29.2167+56.4488L10.0758+56.4488L10.0758+60.1759L18.2249+60.1759C15.7296+64.5663+12.1289+68.4197+8.14908+70.9466L8.14908+65.0085L0.78964+65.0085L0.78964+68.704L4.35881+68.704L4.35881+77.1058C3.00063+77.7691+1.48452+78.9693+0+80.5802L2.77953+84.3705C3.88503+82.4122+5.24321+80.2643+6.15919+80.2643C6.85407+80.2643+7.99116+81.3067+9.44409+82.0963C11.7814+83.4229+14.4346+83.8019+18.6039+83.8019C21.952+83.8019+27.1952+83.5808+29.5009+83.4545C29.5325+82.3174+30.1958+80.3591+30.638+79.2536C27.3847+79.759+22.1731+80.0748+18.7934+80.0748C15.1295+80.0748+12.192+79.8853+10.0126+78.5903C9.25458+78.1481+8.65445+77.7375+8.14908+77.39L8.14908+71.0413Z" id="Mask_8"/>
<path id="Mask_9" d="M38.5344+54.68C37.271+56.7646+34.5862+59.3547+32.1857+60.8708C32.7543+61.6288+33.6702+63.1765+34.0809+64.0293C36.9551+62.1342+40.0821+59.0072+42.1352+56.1014L38.5344+54.68ZM39.3872+61.5972C37.5869+64.661+34.5862+67.7564+31.8699+69.7147C32.4384+70.6307+33.4176+72.7154+33.7018+73.5998C34.6178+72.8417+35.5338+71.9889+36.4814+71.0413L36.4814+84.1178L40.1453+84.1178L40.1453+66.7773C41.1244+65.5454+41.9773+64.2188+42.7037+62.987L39.3872+61.5972ZM47.3468+64.5663L55.3064+64.5663L55.3064+67.1247L47.3468+67.1247L47.3468+64.5663ZM55.3064+59.0704L55.3064+61.5341L47.3468+61.5341L47.3468+59.0704L55.3064+59.0704ZM58.4334+70.6623C57.3279+71.7678+55.6538+73.126+54.2325+74.1367C53.6008+72.9681+53.0322+71.7046+52.59+70.3465L58.9703+70.3465L58.9703+55.8487L43.6829+55.8487L43.6829+78.4955C43.6829+79.9801+42.8617+80.8329+42.1984+81.2435C42.7669+81.8752+43.5565+83.3597+43.8092+84.1809C44.5673+83.7072+45.7359+83.2334+51.9267+81.6857C51.7688+80.8645+51.7372+79.3168+51.7372+78.2429L47.3468+79.222L47.3468+70.3465L49.3367+70.3465C51.0739+76.7267+53.9798+81.4962+59.3493+84.023C59.8863+82.9807+60.9918+81.4646+61.8446+80.7381C59.4757+79.8537+57.549+78.4324+56.0328+76.6636C57.5174+75.7476+59.3493+74.4842+60.8339+73.3155L58.4334+70.6623Z"/>
<path d="M67.7827+70.4412C67.9406+69.2094+68.067+67.8828+68.1933+66.5562L74.7947+66.5562L74.7947+56.1961L64.5294+56.1961L64.5294+59.6074L71.2887+59.6074L71.2887+63.1449L65.1611+63.1449C64.94+66.6194+64.403+71.0098+63.9292+73.7893L65.9507+73.7893L65.9507+73.8209L71.0676+73.8209C70.8149+77.9902+70.4675+79.759+69.9305+80.2959C69.6462+80.5802+69.362+80.6434+68.8566+80.6434C68.2881+80.6434+67.0246+80.6434+65.7296+80.517C66.3298+81.4646+66.7088+82.8859+66.772+83.9283C68.3196+84.023+69.7726+83.9914+70.6254+83.8651C71.6677+83.7387+72.4258+83.4545+73.0891+82.6333C74.0051+81.5909+74.4473+78.7482+74.8263+71.8941C74.8895+71.452+74.921+70.4412+74.921+70.4412L67.7827+70.4412ZM85.7233+79.222L85.7233+76.0634L89.7663+76.0634L87.1762+77.0426C87.5553+77.6427+87.9343+78.3692+88.2817+79.0641L85.7233+79.222ZM79.5957+73.0628L79.5957+69.9043L82.1857+69.9043L82.1857+73.0628L79.5957+73.0628ZM88.3765+69.9043L88.3765+73.0628L85.7233+73.0628L85.7233+69.9043L88.3765+69.9043ZM80.3853+59.2915L87.3026+59.2915L87.3026+61.7236L80.3853+61.7236L80.3853+59.2915ZM93.6513+83.0755C93.1459+81.1487+91.7246+78.2429+90.3664+76.0634L91.7877+76.0634L91.7877+66.872L85.7233+66.872L85.7233+64.7874L90.8718+64.7874L90.8718+56.2277L77.0057+56.2277L77.0057+64.7874L82.1857+64.7874L82.1857+66.872L76.3424+66.872L76.3424+76.0634L82.1857+76.0634L82.1857+79.4115C79.4694+79.5694+76.9741+79.6958+74.9842+79.759L75.4264+83.4229C79.3114+83.1702+84.6178+82.7596+89.7347+82.349C90.0505+83.1386+90.2401+83.8335+90.3664+84.402L93.6513+83.0755Z" id="Mask_10"/>
<path id="Mask_11" d="M124.226+66.9352L124.226+63.0502L111.813+63.0502C112.129+60.1127+112.16+57.2068+112.192+54.6168L108.086+54.6168C108.054+57.2068+108.086+60.0811+107.77+63.0502L96.2729+63.0502L96.2729+66.9352L107.138+66.9352C105.907+72.3679+102.906+77.6111+95.6728+80.8329C96.7783+81.6225+97.8838+82.9807+98.4839+84.023C105.18+80.8013+108.591+75.8739+110.297+70.5991C112.761+76.6952+116.425+81.3067+122.142+83.9914C122.742+82.9175+123.973+81.2435+124.921+80.4538C119.015+78.0533+115.193+73.0944+113.108+66.9352L124.226+66.9352Z"/>
<path d="M132.091+73.505C129.311+73.505+127.006+75.8108+127.006+78.6219C127.006+81.433+129.311+83.7387+132.091+83.7387C134.934+83.7387+137.208+81.433+137.208+78.6219C137.208+75.8108+134.934+73.505+132.091+73.505ZM132.091+81.4646C130.575+81.4646+129.28+80.2012+129.28+78.6219C129.28+77.0426+130.575+75.7792+132.091+75.7792C133.67+75.7792+134.934+77.0426+134.934+78.6219C134.934+80.2012+133.67+81.4646+132.091+81.4646Z" id="Mask_12"/>
</defs>
<g id="图层 1" vectornator:layerName="图层 1">
<g opacity="1">
<g vectornator:mask="#Mask" opacity="1">
<use xlink:href="#Mask" stroke="none" fill="#ffffff"/>
<clipPath id="ClipPath">
<use xlink:href="#Mask" overflow="visible" fill="none"/>
</clipPath>
<g clip-path="url(#ClipPath)">
<g opacity="1">
<path fill="#1c71e8" opacity="1" d="M-111.464-679.994L429.664-679.994L429.664-679.994L429.664-557.238L429.664-43.2675L429.664-43.2675C429.664-43.2675+320.957+82.2899+188.87+158.668C123.052+196.726+88.6066+69.2976+27.115+4.74231C-26.1531-51.1798-111.464-43.2675-111.464-43.2675L-111.464-43.2675L-111.464-679.994L-111.464-679.994Z" fill-opacity="0.399261"/>
<path opacity="1" d="M-74.1268-257.183L575.449-257.183L575.449-257.183L575.449+212.57L575.449+212.57C575.449+212.57+483.572+173.84+359.11+157.42C234.649+141+170.692+455.544+49.2181+314.101C-72.2561+172.658-74.1268+212.57-74.1268+212.57L-74.1268+212.57L-74.1268-257.183L-74.1268-257.183Z" fill="#1c71e8" fill-opacity="0.399261"/>
<path fill="#1c71e8" fill-opacity="0.326028" opacity="1" d="M-256.029+63.0043C-256.029+63.0043-165.674+234.272-16.8131+148.638C67.029+100.407+117.791-167.548+214.541-105.089C303.265-47.8117+488.573+63.0043+488.573+63.0043L488.573+63.0043L488.573+639.513L488.573+639.513L-256.029+639.513L-256.029+639.513L-256.029+63.0043L-256.029+63.0043Z"/>
<path fill="#1c71e8" fill-opacity="0.326028" opacity="1" d="M-364.188+50.7276C-364.188+50.7276-331.619+617.132-119.357+166.405C92.9055-284.322+284.952+50.7276+284.952+50.7276L284.952+50.7276L284.952+804.715L284.952+804.715L-364.188+804.715L-364.188+804.715L-364.188+50.7276L-364.188+50.7276Z"/>
<path fill="#1c71e8" opacity="1" d="M-39.618-773.571L636.345-773.571L636.345-773.571L636.345-144.796L636.345-144.796C636.345-144.796+607.894-197.801+391.336-263.634C279.058-297.766+231.569-100.28+98.1253+61.1671C-9.5372+191.423-39.618-144.796-39.618-144.796L-39.618-144.796L-39.618-773.571L-39.618-773.571Z" fill-opacity="0.399261"/>
<path fill-opacity="0.326028" opacity="1" fill="#1c71e8" d="M55.001+118.202C55.001+118.202+99.4657+10.6203+244.802+10.6203C314.039+10.6203+393.501+142.618+470.999+168.187C556.176+196.289+636.345+118.202+636.345+118.202L636.345+118.202L636.345+725.062L636.345+725.062L55.001+725.062L55.001+725.062L55.001+118.202L55.001+118.202Z"/>
</g>
</g>
</g>
<g opacity="1" vectornator:mask="#Mask_2">
<use xlink:href="#Mask_2" stroke="none" fill="#ffffff"/>
<clipPath id="ClipPath_2">
<use overflow="visible" fill="none" xlink:href="#Mask_2"/>
</clipPath>
<g clip-path="url(#ClipPath_2)">
<g opacity="1">
<path d="M-111.464-679.994L429.664-679.994L429.664-679.994L429.664-557.238L429.664-43.2675L429.664-43.2675C429.664-43.2675+320.957+82.2899+188.87+158.668C123.052+196.726+88.6066+69.2976+27.115+4.74231C-26.1531-51.1798-111.464-43.2675-111.464-43.2675L-111.464-43.2675L-111.464-679.994L-111.464-679.994Z" fill="#1c71e8" fill-opacity="0.399261" opacity="1"/>
<path opacity="1" fill="#1c71e8" d="M-74.1268-257.183L575.449-257.183L575.449-257.183L575.449+212.57L575.449+212.57C575.449+212.57+483.572+173.84+359.11+157.42C234.649+141+170.692+455.544+49.2181+314.101C-72.2561+172.658-74.1268+212.57-74.1268+212.57L-74.1268+212.57L-74.1268-257.183L-74.1268-257.183Z" fill-opacity="0.399261"/>
<path fill="#1c71e8" d="M-256.029+63.0043C-256.029+63.0043-165.674+234.272-16.8131+148.638C67.029+100.407+117.791-167.548+214.541-105.089C303.265-47.8117+488.573+63.0043+488.573+63.0043L488.573+63.0043L488.573+639.513L488.573+639.513L-256.029+639.513L-256.029+639.513L-256.029+63.0043L-256.029+63.0043Z" opacity="1" fill-opacity="0.326028"/>
<path fill="#1c71e8" fill-opacity="0.326028" opacity="1" d="M-364.188+50.7276C-364.188+50.7276-331.619+617.132-119.357+166.405C92.9055-284.322+284.952+50.7276+284.952+50.7276L284.952+50.7276L284.952+804.715L284.952+804.715L-364.188+804.715L-364.188+804.715L-364.188+50.7276L-364.188+50.7276Z"/>
<path d="M-39.618-773.571L636.345-773.571L636.345-773.571L636.345-144.796L636.345-144.796C636.345-144.796+607.894-197.801+391.336-263.634C279.058-297.766+231.569-100.28+98.1253+61.1671C-9.5372+191.423-39.618-144.796-39.618-144.796L-39.618-144.796L-39.618-773.571L-39.618-773.571Z" opacity="1" fill-opacity="0.399261" fill="#1c71e8"/>
<path fill-opacity="0.326028" fill="#1c71e8" opacity="1" d="M55.001+118.202C55.001+118.202+99.4657+10.6203+244.802+10.6203C314.039+10.6203+393.501+142.618+470.999+168.187C556.176+196.289+636.345+118.202+636.345+118.202L636.345+118.202L636.345+725.062L636.345+725.062L55.001+725.062L55.001+725.062L55.001+118.202L55.001+118.202Z"/>
</g>
</g>
</g>
<g vectornator:mask="#Mask_3" opacity="1">
<use xlink:href="#Mask_3" fill="#ffffff" stroke="none"/>
<clipPath id="ClipPath_3">
<use xlink:href="#Mask_3" fill="none" overflow="visible"/>
</clipPath>
<g clip-path="url(#ClipPath_3)">
<g opacity="1">
<path fill-opacity="0.399261" opacity="1" fill="#1c71e8" d="M-111.464-679.994L429.664-679.994L429.664-679.994L429.664-557.238L429.664-43.2675L429.664-43.2675C429.664-43.2675+320.957+82.2899+188.87+158.668C123.052+196.726+88.6066+69.2976+27.115+4.74231C-26.1531-51.1798-111.464-43.2675-111.464-43.2675L-111.464-43.2675L-111.464-679.994L-111.464-679.994Z"/>
<path d="M-74.1268-257.183L575.449-257.183L575.449-257.183L575.449+212.57L575.449+212.57C575.449+212.57+483.572+173.84+359.11+157.42C234.649+141+170.692+455.544+49.2181+314.101C-72.2561+172.658-74.1268+212.57-74.1268+212.57L-74.1268+212.57L-74.1268-257.183L-74.1268-257.183Z" opacity="1" fill="#1c71e8" fill-opacity="0.399261"/>
<path d="M-256.029+63.0043C-256.029+63.0043-165.674+234.272-16.8131+148.638C67.029+100.407+117.791-167.548+214.541-105.089C303.265-47.8117+488.573+63.0043+488.573+63.0043L488.573+63.0043L488.573+639.513L488.573+639.513L-256.029+639.513L-256.029+639.513L-256.029+63.0043L-256.029+63.0043Z" fill-opacity="0.326028" fill="#1c71e8" opacity="1"/>
<path fill-opacity="0.326028" d="M-364.188+50.7276C-364.188+50.7276-331.619+617.132-119.357+166.405C92.9055-284.322+284.952+50.7276+284.952+50.7276L284.952+50.7276L284.952+804.715L284.952+804.715L-364.188+804.715L-364.188+804.715L-364.188+50.7276L-364.188+50.7276Z" opacity="1" fill="#1c71e8"/>
<path fill="#1c71e8" opacity="1" fill-opacity="0.399261" d="M-39.618-773.571L636.345-773.571L636.345-773.571L636.345-144.796L636.345-144.796C636.345-144.796+607.894-197.801+391.336-263.634C279.058-297.766+231.569-100.28+98.1253+61.1671C-9.5372+191.423-39.618-144.796-39.618-144.796L-39.618-144.796L-39.618-773.571L-39.618-773.571Z"/>
<path fill="#1c71e8" opacity="1" d="M55.001+118.202C55.001+118.202+99.4657+10.6203+244.802+10.6203C314.039+10.6203+393.501+142.618+470.999+168.187C556.176+196.289+636.345+118.202+636.345+118.202L636.345+118.202L636.345+725.062L636.345+725.062L55.001+725.062L55.001+725.062L55.001+118.202L55.001+118.202Z" fill-opacity="0.326028"/>
</g>
</g>
</g>
<g opacity="1" vectornator:mask="#Mask_4">
<use fill="#ffffff" xlink:href="#Mask_4" stroke="none"/>
<clipPath id="ClipPath_4">
<use xlink:href="#Mask_4" overflow="visible" fill="none"/>
</clipPath>
<g clip-path="url(#ClipPath_4)">
<g opacity="1">
<path d="M-111.464-679.994L429.664-679.994L429.664-679.994L429.664-557.238L429.664-43.2675L429.664-43.2675C429.664-43.2675+320.957+82.2899+188.87+158.668C123.052+196.726+88.6066+69.2976+27.115+4.74231C-26.1531-51.1798-111.464-43.2675-111.464-43.2675L-111.464-43.2675L-111.464-679.994L-111.464-679.994Z" fill-opacity="0.399261" fill="#1c71e8" opacity="1"/>
<path fill-opacity="0.399261" d="M-74.1268-257.183L575.449-257.183L575.449-257.183L575.449+212.57L575.449+212.57C575.449+212.57+483.572+173.84+359.11+157.42C234.649+141+170.692+455.544+49.2181+314.101C-72.2561+172.658-74.1268+212.57-74.1268+212.57L-74.1268+212.57L-74.1268-257.183L-74.1268-257.183Z" opacity="1" fill="#1c71e8"/>
<path d="M-256.029+63.0043C-256.029+63.0043-165.674+234.272-16.8131+148.638C67.029+100.407+117.791-167.548+214.541-105.089C303.265-47.8117+488.573+63.0043+488.573+63.0043L488.573+63.0043L488.573+639.513L488.573+639.513L-256.029+639.513L-256.029+639.513L-256.029+63.0043L-256.029+63.0043Z" fill-opacity="0.326028" fill="#1c71e8" opacity="1"/>
<path d="M-364.188+50.7276C-364.188+50.7276-331.619+617.132-119.357+166.405C92.9055-284.322+284.952+50.7276+284.952+50.7276L284.952+50.7276L284.952+804.715L284.952+804.715L-364.188+804.715L-364.188+804.715L-364.188+50.7276L-364.188+50.7276Z" fill="#1c71e8" opacity="1" fill-opacity="0.326028"/>
<path d="M-39.618-773.571L636.345-773.571L636.345-773.571L636.345-144.796L636.345-144.796C636.345-144.796+607.894-197.801+391.336-263.634C279.058-297.766+231.569-100.28+98.1253+61.1671C-9.5372+191.423-39.618-144.796-39.618-144.796L-39.618-144.796L-39.618-773.571L-39.618-773.571Z" fill-opacity="0.399261" opacity="1" fill="#1c71e8"/>
<path fill-opacity="0.326028" opacity="1" d="M55.001+118.202C55.001+118.202+99.4657+10.6203+244.802+10.6203C314.039+10.6203+393.501+142.618+470.999+168.187C556.176+196.289+636.345+118.202+636.345+118.202L636.345+118.202L636.345+725.062L636.345+725.062L55.001+725.062L55.001+725.062L55.001+118.202L55.001+118.202Z" fill="#1c71e8"/>
</g>
</g>
</g>
<g vectornator:mask="#Mask_5" opacity="1">
<use fill="#ffffff" xlink:href="#Mask_5" stroke="none"/>
<clipPath id="ClipPath_5">
<use fill="none" overflow="visible" xlink:href="#Mask_5"/>
</clipPath>
<g clip-path="url(#ClipPath_5)">
<g opacity="1">
<path fill-opacity="0.399261" d="M-111.464-679.994L429.664-679.994L429.664-679.994L429.664-557.238L429.664-43.2675L429.664-43.2675C429.664-43.2675+320.957+82.2899+188.87+158.668C123.052+196.726+88.6066+69.2976+27.115+4.74231C-26.1531-51.1798-111.464-43.2675-111.464-43.2675L-111.464-43.2675L-111.464-679.994L-111.464-679.994Z" fill="#1c71e8" opacity="1"/>
<path fill="#1c71e8" opacity="1" d="M-74.1268-257.183L575.449-257.183L575.449-257.183L575.449+212.57L575.449+212.57C575.449+212.57+483.572+173.84+359.11+157.42C234.649+141+170.692+455.544+49.2181+314.101C-72.2561+172.658-74.1268+212.57-74.1268+212.57L-74.1268+212.57L-74.1268-257.183L-74.1268-257.183Z" fill-opacity="0.399261"/>
<path fill-opacity="0.326028" opacity="1" d="M-256.029+63.0043C-256.029+63.0043-165.674+234.272-16.8131+148.638C67.029+100.407+117.791-167.548+214.541-105.089C303.265-47.8117+488.573+63.0043+488.573+63.0043L488.573+63.0043L488.573+639.513L488.573+639.513L-256.029+639.513L-256.029+639.513L-256.029+63.0043L-256.029+63.0043Z" fill="#1c71e8"/>
<path fill-opacity="0.326028" fill="#1c71e8" d="M-364.188+50.7276C-364.188+50.7276-331.619+617.132-119.357+166.405C92.9055-284.322+284.952+50.7276+284.952+50.7276L284.952+50.7276L284.952+804.715L284.952+804.715L-364.188+804.715L-364.188+804.715L-364.188+50.7276L-364.188+50.7276Z" opacity="1"/>
<path fill-opacity="0.399261" opacity="1" fill="#1c71e8" d="M-39.618-773.571L636.345-773.571L636.345-773.571L636.345-144.796L636.345-144.796C636.345-144.796+607.894-197.801+391.336-263.634C279.058-297.766+231.569-100.28+98.1253+61.1671C-9.5372+191.423-39.618-144.796-39.618-144.796L-39.618-144.796L-39.618-773.571L-39.618-773.571Z"/>
<path fill-opacity="0.326028" d="M55.001+118.202C55.001+118.202+99.4657+10.6203+244.802+10.6203C314.039+10.6203+393.501+142.618+470.999+168.187C556.176+196.289+636.345+118.202+636.345+118.202L636.345+118.202L636.345+725.062L636.345+725.062L55.001+725.062L55.001+725.062L55.001+118.202L55.001+118.202Z" opacity="1" fill="#1c71e8"/>
</g>
</g>
</g>
<g vectornator:mask="#Mask_6" opacity="1">
<use xlink:href="#Mask_6" stroke="none" fill="#ffffff"/>
<clipPath id="ClipPath_6">
<use overflow="visible" xlink:href="#Mask_6" fill="none"/>
</clipPath>
<g clip-path="url(#ClipPath_6)">
<g opacity="1">
<path fill="#1c71e8" fill-opacity="0.399261" d="M-111.464-679.994L429.664-679.994L429.664-679.994L429.664-557.238L429.664-43.2675L429.664-43.2675C429.664-43.2675+320.957+82.2899+188.87+158.668C123.052+196.726+88.6066+69.2976+27.115+4.74231C-26.1531-51.1798-111.464-43.2675-111.464-43.2675L-111.464-43.2675L-111.464-679.994L-111.464-679.994Z" opacity="1"/>
<path fill="#1c71e8" fill-opacity="0.399261" opacity="1" d="M-74.1268-257.183L575.449-257.183L575.449-257.183L575.449+212.57L575.449+212.57C575.449+212.57+483.572+173.84+359.11+157.42C234.649+141+170.692+455.544+49.2181+314.101C-72.2561+172.658-74.1268+212.57-74.1268+212.57L-74.1268+212.57L-74.1268-257.183L-74.1268-257.183Z"/>
<path d="M-256.029+63.0043C-256.029+63.0043-165.674+234.272-16.8131+148.638C67.029+100.407+117.791-167.548+214.541-105.089C303.265-47.8117+488.573+63.0043+488.573+63.0043L488.573+63.0043L488.573+639.513L488.573+639.513L-256.029+639.513L-256.029+639.513L-256.029+63.0043L-256.029+63.0043Z" opacity="1" fill-opacity="0.326028" fill="#1c71e8"/>
<path opacity="1" fill-opacity="0.326028" fill="#1c71e8" d="M-364.188+50.7276C-364.188+50.7276-331.619+617.132-119.357+166.405C92.9055-284.322+284.952+50.7276+284.952+50.7276L284.952+50.7276L284.952+804.715L284.952+804.715L-364.188+804.715L-364.188+804.715L-364.188+50.7276L-364.188+50.7276Z"/>
<path d="M-39.618-773.571L636.345-773.571L636.345-773.571L636.345-144.796L636.345-144.796C636.345-144.796+607.894-197.801+391.336-263.634C279.058-297.766+231.569-100.28+98.1253+61.1671C-9.5372+191.423-39.618-144.796-39.618-144.796L-39.618-144.796L-39.618-773.571L-39.618-773.571Z" fill-opacity="0.399261" opacity="1" fill="#1c71e8"/>
<path fill-opacity="0.326028" fill="#1c71e8" opacity="1" d="M55.001+118.202C55.001+118.202+99.4657+10.6203+244.802+10.6203C314.039+10.6203+393.501+142.618+470.999+168.187C556.176+196.289+636.345+118.202+636.345+118.202L636.345+118.202L636.345+725.062L636.345+725.062L55.001+725.062L55.001+725.062L55.001+118.202L55.001+118.202Z"/>
</g>
</g>
</g>
<g opacity="1" vectornator:mask="#Mask_7">
<use xlink:href="#Mask_7" stroke="none" fill="#ffffff"/>
<clipPath id="ClipPath_7">
<use overflow="visible" fill="none" xlink:href="#Mask_7"/>
</clipPath>
<g clip-path="url(#ClipPath_7)">
<g opacity="1">
<path opacity="1" d="M-111.464-679.994L429.664-679.994L429.664-679.994L429.664-557.238L429.664-43.2675L429.664-43.2675C429.664-43.2675+320.957+82.2899+188.87+158.668C123.052+196.726+88.6066+69.2976+27.115+4.74231C-26.1531-51.1798-111.464-43.2675-111.464-43.2675L-111.464-43.2675L-111.464-679.994L-111.464-679.994Z" fill="#1c71e8" fill-opacity="0.399261"/>
<path fill="#1c71e8" d="M-74.1268-257.183L575.449-257.183L575.449-257.183L575.449+212.57L575.449+212.57C575.449+212.57+483.572+173.84+359.11+157.42C234.649+141+170.692+455.544+49.2181+314.101C-72.2561+172.658-74.1268+212.57-74.1268+212.57L-74.1268+212.57L-74.1268-257.183L-74.1268-257.183Z" opacity="1" fill-opacity="0.399261"/>
<path fill="#1c71e8" d="M-256.029+63.0043C-256.029+63.0043-165.674+234.272-16.8131+148.638C67.029+100.407+117.791-167.548+214.541-105.089C303.265-47.8117+488.573+63.0043+488.573+63.0043L488.573+63.0043L488.573+639.513L488.573+639.513L-256.029+639.513L-256.029+639.513L-256.029+63.0043L-256.029+63.0043Z" opacity="1" fill-opacity="0.326028"/>
<path d="M-364.188+50.7276C-364.188+50.7276-331.619+617.132-119.357+166.405C92.9055-284.322+284.952+50.7276+284.952+50.7276L284.952+50.7276L284.952+804.715L284.952+804.715L-364.188+804.715L-364.188+804.715L-364.188+50.7276L-364.188+50.7276Z" fill-opacity="0.326028" opacity="1" fill="#1c71e8"/>
<path fill="#1c71e8" d="M-39.618-773.571L636.345-773.571L636.345-773.571L636.345-144.796L636.345-144.796C636.345-144.796+607.894-197.801+391.336-263.634C279.058-297.766+231.569-100.28+98.1253+61.1671C-9.5372+191.423-39.618-144.796-39.618-144.796L-39.618-144.796L-39.618-773.571L-39.618-773.571Z" opacity="1" fill-opacity="0.399261"/>
<path fill-opacity="0.326028" fill="#1c71e8" d="M55.001+118.202C55.001+118.202+99.4657+10.6203+244.802+10.6203C314.039+10.6203+393.501+142.618+470.999+168.187C556.176+196.289+636.345+118.202+636.345+118.202L636.345+118.202L636.345+725.062L636.345+725.062L55.001+725.062L55.001+725.062L55.001+118.202L55.001+118.202Z" opacity="1"/>
</g>
</g>
</g>
</g>
<g opacity="1">
<g opacity="1" vectornator:mask="#Mask_8">
<use xlink:href="#Mask_8" stroke="none" fill="#ffffff"/>
<clipPath id="ClipPath_8">
<use overflow="visible" fill="none" xlink:href="#Mask_8"/>
</clipPath>
<g clip-path="url(#ClipPath_8)">
<g opacity="1">
<path opacity="1" d="M-331.047-625.441L210.081-625.441L210.081-625.441L210.081-502.685L210.081+11.2861L210.081+11.2861C210.081+11.2861+101.374+136.844-30.7135+213.222C-96.5306+251.28-130.977+123.851-192.468+59.296C-245.736+3.37383-331.047+11.2861-331.047+11.2861L-331.047+11.2861L-331.047-625.441L-331.047-625.441Z" fill-opacity="0.399261" fill="#1c71e8"/>
<path opacity="1" fill="#1c71e8" d="M-293.71-202.629L355.866-202.629L355.866-202.629L355.866+267.124L355.866+267.124C355.866+267.124+263.989+228.394+139.527+211.974C15.0659+195.553-48.8908+510.098-170.365+368.655C-291.839+227.211-293.71+267.124-293.71+267.124L-293.71+267.124L-293.71-202.629L-293.71-202.629Z" fill-opacity="0.399261"/>
<path d="M-475.612+117.558C-475.612+117.558-385.257+288.826-236.396+203.192C-152.554+154.961-101.792-112.994-5.04167-50.5351C83.6816+6.74196+268.99+117.558+268.99+117.558L268.99+117.558L268.99+694.067L268.99+694.067L-475.612+694.067L-475.612+694.067L-475.612+117.558L-475.612+117.558Z" fill-opacity="0.326028" opacity="1" fill="#1c71e8"/>
<path fill="#1c71e8" d="M-583.771+105.281C-583.771+105.281-551.202+671.685-338.94+220.959C-126.678-229.768+65.3691+105.281+65.3691+105.281L65.3691+105.281L65.3691+859.268L65.3691+859.268L-583.771+859.268L-583.771+859.268L-583.771+105.281L-583.771+105.281Z" fill-opacity="0.326028" opacity="1"/>
<path opacity="1" fill="#1c71e8" fill-opacity="0.399261" d="M-259.201-719.018L416.762-719.018L416.762-719.018L416.762-90.2425L416.762-90.2425C416.762-90.2425+388.311-143.247+171.753-209.08C59.4746-243.212+11.9857-45.7266-121.458+115.721C-229.12+245.977-259.201-90.2425-259.201-90.2425L-259.201-90.2425L-259.201-719.018L-259.201-719.018Z"/>
<path d="M-164.582+172.756C-164.582+172.756-120.117+65.1739+25.2186+65.1739C94.4562+65.1739+173.918+197.172+251.416+222.74C336.593+250.843+416.762+172.756+416.762+172.756L416.762+172.756L416.762+779.616L416.762+779.616L-164.582+779.616L-164.582+779.616L-164.582+172.756L-164.582+172.756Z" fill-opacity="0.326028" fill="#1c71e8" opacity="1"/>
</g>
</g>
</g>
<g opacity="1" vectornator:mask="#Mask_9">
<use xlink:href="#Mask_9" fill="#ffffff" stroke="none"/>
<clipPath id="ClipPath_9">
<use xlink:href="#Mask_9" fill="none" overflow="visible"/>
</clipPath>
<g clip-path="url(#ClipPath_9)">
<g opacity="1">
<path opacity="1" fill="#1c71e8" d="M-331.047-625.441L210.081-625.441L210.081-625.441L210.081-502.685L210.081+11.2861L210.081+11.2861C210.081+11.2861+101.374+136.844-30.7135+213.222C-96.5306+251.28-130.977+123.851-192.468+59.296C-245.736+3.37383-331.047+11.2861-331.047+11.2861L-331.047+11.2861L-331.047-625.441L-331.047-625.441Z" fill-opacity="0.399261"/>
<path fill="#1c71e8" fill-opacity="0.399261" d="M-293.71-202.629L355.866-202.629L355.866-202.629L355.866+267.124L355.866+267.124C355.866+267.124+263.989+228.394+139.527+211.974C15.0659+195.553-48.8908+510.098-170.365+368.655C-291.839+227.211-293.71+267.124-293.71+267.124L-293.71+267.124L-293.71-202.629L-293.71-202.629Z" opacity="1"/>
<path fill="#1c71e8" d="M-475.612+117.558C-475.612+117.558-385.257+288.826-236.396+203.192C-152.554+154.961-101.792-112.994-5.04167-50.5351C83.6816+6.74196+268.99+117.558+268.99+117.558L268.99+117.558L268.99+694.067L268.99+694.067L-475.612+694.067L-475.612+694.067L-475.612+117.558L-475.612+117.558Z" fill-opacity="0.326028" opacity="1"/>
<path d="M-583.771+105.281C-583.771+105.281-551.202+671.685-338.94+220.959C-126.678-229.768+65.3691+105.281+65.3691+105.281L65.3691+105.281L65.3691+859.268L65.3691+859.268L-583.771+859.268L-583.771+859.268L-583.771+105.281L-583.771+105.281Z" opacity="1" fill-opacity="0.326028" fill="#1c71e8"/>
<path fill-opacity="0.399261" opacity="1" d="M-259.201-719.018L416.762-719.018L416.762-719.018L416.762-90.2425L416.762-90.2425C416.762-90.2425+388.311-143.247+171.753-209.08C59.4746-243.212+11.9857-45.7266-121.458+115.721C-229.12+245.977-259.201-90.2425-259.201-90.2425L-259.201-90.2425L-259.201-719.018L-259.201-719.018Z" fill="#1c71e8"/>
<path opacity="1" d="M-164.582+172.756C-164.582+172.756-120.117+65.1739+25.2186+65.1739C94.4562+65.1739+173.918+197.172+251.416+222.74C336.593+250.843+416.762+172.756+416.762+172.756L416.762+172.756L416.762+779.616L416.762+779.616L-164.582+779.616L-164.582+779.616L-164.582+172.756L-164.582+172.756Z" fill-opacity="0.326028" fill="#1c71e8"/>
</g>
</g>
</g>
<g opacity="1" vectornator:mask="#Mask_10">
<use stroke="none" xlink:href="#Mask_10" fill="#ffffff"/>
<clipPath id="ClipPath_10">
<use fill="none" overflow="visible" xlink:href="#Mask_10"/>
</clipPath>
<g clip-path="url(#ClipPath_10)">
<g opacity="1">
<path opacity="1" fill="#1c71e8" d="M-331.047-625.441L210.081-625.441L210.081-625.441L210.081-502.685L210.081+11.2861L210.081+11.2861C210.081+11.2861+101.374+136.844-30.7135+213.222C-96.5306+251.28-130.977+123.851-192.468+59.296C-245.736+3.37383-331.047+11.2861-331.047+11.2861L-331.047+11.2861L-331.047-625.441L-331.047-625.441Z" fill-opacity="0.399261"/>
<path fill-opacity="0.399261" opacity="1" d="M-293.71-202.629L355.866-202.629L355.866-202.629L355.866+267.124L355.866+267.124C355.866+267.124+263.989+228.394+139.527+211.974C15.0659+195.553-48.8908+510.098-170.365+368.655C-291.839+227.211-293.71+267.124-293.71+267.124L-293.71+267.124L-293.71-202.629L-293.71-202.629Z" fill="#1c71e8"/>
<path d="M-475.612+117.558C-475.612+117.558-385.257+288.826-236.396+203.192C-152.554+154.961-101.792-112.994-5.04167-50.5351C83.6816+6.74196+268.99+117.558+268.99+117.558L268.99+117.558L268.99+694.067L268.99+694.067L-475.612+694.067L-475.612+694.067L-475.612+117.558L-475.612+117.558Z" fill-opacity="0.326028" fill="#1c71e8" opacity="1"/>
<path fill-opacity="0.326028" d="M-583.771+105.281C-583.771+105.281-551.202+671.685-338.94+220.959C-126.678-229.768+65.3691+105.281+65.3691+105.281L65.3691+105.281L65.3691+859.268L65.3691+859.268L-583.771+859.268L-583.771+859.268L-583.771+105.281L-583.771+105.281Z" opacity="1" fill="#1c71e8"/>
<path opacity="1" fill="#1c71e8" fill-opacity="0.399261" d="M-259.201-719.018L416.762-719.018L416.762-719.018L416.762-90.2425L416.762-90.2425C416.762-90.2425+388.311-143.247+171.753-209.08C59.4746-243.212+11.9857-45.7266-121.458+115.721C-229.12+245.977-259.201-90.2425-259.201-90.2425L-259.201-90.2425L-259.201-719.018L-259.201-719.018Z"/>
<path fill-opacity="0.326028" d="M-164.582+172.756C-164.582+172.756-120.117+65.1739+25.2186+65.1739C94.4562+65.1739+173.918+197.172+251.416+222.74C336.593+250.843+416.762+172.756+416.762+172.756L416.762+172.756L416.762+779.616L416.762+779.616L-164.582+779.616L-164.582+779.616L-164.582+172.756L-164.582+172.756Z" opacity="1" fill="#1c71e8"/>
</g>
</g>
</g>
<g opacity="1" vectornator:mask="#Mask_11">
<use stroke="none" fill="#ffffff" xlink:href="#Mask_11"/>
<clipPath id="ClipPath_11">
<use overflow="visible" xlink:href="#Mask_11" fill="none"/>
</clipPath>
<g clip-path="url(#ClipPath_11)">
<g opacity="1">
<path fill="#1c71e8" opacity="1" d="M-331.047-625.441L210.081-625.441L210.081-625.441L210.081-502.685L210.081+11.2861L210.081+11.2861C210.081+11.2861+101.374+136.844-30.7135+213.222C-96.5306+251.28-130.977+123.851-192.468+59.296C-245.736+3.37383-331.047+11.2861-331.047+11.2861L-331.047+11.2861L-331.047-625.441L-331.047-625.441Z" fill-opacity="0.399261"/>
<path fill="#1c71e8" d="M-293.71-202.629L355.866-202.629L355.866-202.629L355.866+267.124L355.866+267.124C355.866+267.124+263.989+228.394+139.527+211.974C15.0659+195.553-48.8908+510.098-170.365+368.655C-291.839+227.211-293.71+267.124-293.71+267.124L-293.71+267.124L-293.71-202.629L-293.71-202.629Z" fill-opacity="0.399261" opacity="1"/>
<path d="M-475.612+117.558C-475.612+117.558-385.257+288.826-236.396+203.192C-152.554+154.961-101.792-112.994-5.04167-50.5351C83.6816+6.74196+268.99+117.558+268.99+117.558L268.99+117.558L268.99+694.067L268.99+694.067L-475.612+694.067L-475.612+694.067L-475.612+117.558L-475.612+117.558Z" fill-opacity="0.326028" fill="#1c71e8" opacity="1"/>
<path opacity="1" fill="#1c71e8" d="M-583.771+105.281C-583.771+105.281-551.202+671.685-338.94+220.959C-126.678-229.768+65.3691+105.281+65.3691+105.281L65.3691+105.281L65.3691+859.268L65.3691+859.268L-583.771+859.268L-583.771+859.268L-583.771+105.281L-583.771+105.281Z" fill-opacity="0.326028"/>
<path fill="#1c71e8" d="M-259.201-719.018L416.762-719.018L416.762-719.018L416.762-90.2425L416.762-90.2425C416.762-90.2425+388.311-143.247+171.753-209.08C59.4746-243.212+11.9857-45.7266-121.458+115.721C-229.12+245.977-259.201-90.2425-259.201-90.2425L-259.201-90.2425L-259.201-719.018L-259.201-719.018Z" fill-opacity="0.399261" opacity="1"/>
<path d="M-164.582+172.756C-164.582+172.756-120.117+65.1739+25.2186+65.1739C94.4562+65.1739+173.918+197.172+251.416+222.74C336.593+250.843+416.762+172.756+416.762+172.756L416.762+172.756L416.762+779.616L416.762+779.616L-164.582+779.616L-164.582+779.616L-164.582+172.756L-164.582+172.756Z" fill="#1c71e8" opacity="1" fill-opacity="0.326028"/>
</g>
</g>
</g>
<g vectornator:mask="#Mask_12" opacity="1">
<use fill="#ffffff" xlink:href="#Mask_12" stroke="none"/>
<clipPath id="ClipPath_12">
<use fill="none" xlink:href="#Mask_12" overflow="visible"/>
</clipPath>
<g clip-path="url(#ClipPath_12)">
<g opacity="1">
<path d="M-331.047-625.441L210.081-625.441L210.081-625.441L210.081-502.685L210.081+11.2861L210.081+11.2861C210.081+11.2861+101.374+136.844-30.7135+213.222C-96.5306+251.28-130.977+123.851-192.468+59.296C-245.736+3.37383-331.047+11.2861-331.047+11.2861L-331.047+11.2861L-331.047-625.441L-331.047-625.441Z" opacity="1" fill-opacity="0.399261" fill="#1c71e8"/>
<path fill="#1c71e8" d="M-293.71-202.629L355.866-202.629L355.866-202.629L355.866+267.124L355.866+267.124C355.866+267.124+263.989+228.394+139.527+211.974C15.0659+195.553-48.8908+510.098-170.365+368.655C-291.839+227.211-293.71+267.124-293.71+267.124L-293.71+267.124L-293.71-202.629L-293.71-202.629Z" opacity="1" fill-opacity="0.399261"/>
<path opacity="1" d="M-475.612+117.558C-475.612+117.558-385.257+288.826-236.396+203.192C-152.554+154.961-101.792-112.994-5.04167-50.5351C83.6816+6.74196+268.99+117.558+268.99+117.558L268.99+117.558L268.99+694.067L268.99+694.067L-475.612+694.067L-475.612+694.067L-475.612+117.558L-475.612+117.558Z" fill-opacity="0.326028" fill="#1c71e8"/>
<path opacity="1" fill-opacity="0.326028" fill="#1c71e8" d="M-583.771+105.281C-583.771+105.281-551.202+671.685-338.94+220.959C-126.678-229.768+65.3691+105.281+65.3691+105.281L65.3691+105.281L65.3691+859.268L65.3691+859.268L-583.771+859.268L-583.771+859.268L-583.771+105.281L-583.771+105.281Z"/>
<path fill="#1c71e8" opacity="1" d="M-259.201-719.018L416.762-719.018L416.762-719.018L416.762-90.2425L416.762-90.2425C416.762-90.2425+388.311-143.247+171.753-209.08C59.4746-243.212+11.9857-45.7266-121.458+115.721C-229.12+245.977-259.201-90.2425-259.201-90.2425L-259.201-90.2425L-259.201-719.018L-259.201-719.018Z" fill-opacity="0.399261"/>
<path opacity="1" fill="#1c71e8" fill-opacity="0.326028" d="M-164.582+172.756C-164.582+172.756-120.117+65.1739+25.2186+65.1739C94.4562+65.1739+173.918+197.172+251.416+222.74C336.593+250.843+416.762+172.756+416.762+172.756L416.762+172.756L416.762+779.616L416.762+779.616L-164.582+779.616L-164.582+779.616L-164.582+172.756L-164.582+172.756Z"/>
</g>
</g>
</g>
</g>
</g>
</svg>
