<?xml version="1.0" encoding="UTF-8" standalone="no"?> <!-- Created with Vectornator for iOS (http://vectornator.io/) --><!DOCTYPE svg PUBLIC "-//W3C//DTD SVG 1.1//EN" "http://www.w3.org/Graphics/SVG/1.1/DTD/svg11.dtd">
<svg xmlns="http://www.w3.org/2000/svg" xmlns:xlink="http://www.w3.org/1999/xlink" style="fill-rule:nonzero;clip-rule:evenodd;stroke-linecap:round;stroke-linejoin:round;" version="1.1" viewBox="0 0 75 25" xml:space="preserve" xmlns:vectornator="http://vectornator.io" height="100%" width="100%">
<metadata>
<vectornator:setting key="UndoHistoryDisabled" value="true"/>
<vectornator:setting key="WDDisplayWhiteBackground" value="false"/>
<vectornator:setting value="true" key="VNSnapToGuides"/>
<vectornator:setting key="WDRulersVisible" value="true"/>
<vectornator:setting value="false" key="WDIsolateActiveLayer"/>
<vectornator:setting key="WDSnapToGrid" value="false"/>
<vectornator:setting key="WDUnits" value="Pixels"/>
<vectornator:setting value="true" key="WDDynamicGuides"/>
<vectornator:setting value="false" key="WDSnapToEdges"/>
<vectornator:setting key="WDOutlineMode" value="false"/>
<vectornator:setting key="WDSnapToPoints" value="false"/>
<vectornator:setting value="false" key="IsTimeLapseWatermarkDisabled"/>
<vectornator:setting key="WDCMYKEnabledKey" value="false"/>
<vectornator:setting value="true" key="WDGuidesVisible"/>
<vectornator:setting key="VNDimensionsVisible" value="true"/>
</metadata>
<defs/>
<g vectornator:layerName="图层 1" id="图层 1">
<g opacity="1">
<g opacity="1">
<path opacity="1" fill="#4d90ed" d="M14.3134+0.695471C15.1486+0.242099+16.0985-0.0037181+17.0499+0.000410935C16.6725+0.555908+16.3152+1.12407+15.9592+1.69278C15.4448+1.83482+14.9556+2.07155+14.5306+2.39555C14.1854+2.651+13.9024+2.97637+13.5955+3.27394C13.2327+3.63619+12.8691+4.00038+12.5057+4.36346C11.8599+4.3296+11.2262+4.5578+10.684+4.89528C10.3052+5.14+9.95338+5.42876+9.64398+5.75633C9.22667+6.1552+8.87019+6.61105+8.5272+7.07406C8.46527+7.15141+8.42122+7.24582+8.34277+7.30776C8.28193+7.32593+8.21752+7.31987+8.15503+7.31987C7.8916+7.31024+7.62706+7.3218+7.36335+7.31657C9.22391+5.44528+11.0944+3.58417+12.9582+1.71673C13.3585+1.31456+13.8138+0.965788+14.3134+0.695471Z"/>
<path opacity="1" d="M15.9595+1.6925C16.3155+1.12379+16.6728+0.555083+17.0502+0.000136209C18.1523-0.00757139+19.2553+0.312019+20.1814+0.911009C21.0702+1.48165+21.7994+2.30113+22.2577+3.25357C22.7472+4.26464+22.9294+5.42133+22.778+6.53397C22.6365+7.61304+22.1776+8.64833+21.4732+9.4769C21.027+9.20355+20.5813+8.92966+20.1362+8.65384C20.8646+7.88583+21.286+6.83595+21.2846+5.77725C21.294+4.70535+20.8717+3.63895+20.131+2.86571C19.3955+2.08009+18.3489+1.59671+17.2734+1.54991C16.8313+1.52569+16.3859+1.57717+15.9595+1.6925Z" fill="#6ea4f0"/>
<path fill="#3d85eb" opacity="1" d="M10.6837+4.89501C11.226+4.55753+11.8599+4.32933+12.5057+4.36318C11.4723+5.40123+10.4329+6.43267+9.40119+7.47182L9.39706+7.471C9.16225+7.3997+8.91644+7.38786+8.67502+7.35483C8.56189+7.34245+8.4449+7.32675+8.33314+7.35648C8.25358+7.43659+8.19853+7.53624+8.13301+7.62735C7.61358+8.40885+7.13736+9.21732+6.68151+10.0368C6.63692+10.1194+6.58737+10.202+6.57057+10.2953C5.48656+11.3881+4.39125+12.4749+3.30366+13.5661C3.21502+13.5033+3.16244+13.4069+3.0961+13.3246C2.83927+13.0001+2.58162+12.6767+2.30029+12.3739C3.65187+11.0195+5.00621+9.66766+6.35889+8.3136C6.69472+7.98245+7.0234+7.64249+7.36308+7.31574C7.62679+7.32042+7.89105+7.30886+8.15504+7.31905C8.21697+7.31905+8.28139+7.3251+8.34222+7.30694C8.42122+7.245+8.46472+7.15141+8.52665+7.07323C8.86964+6.60967+9.22612+6.15437+9.64343+5.75551C9.95283+5.42793+10.3046+5.13972+10.6837+4.89501Z"/>
<g opacity="1">
<path d="M8.33286+7.35676C8.44407+7.32786+8.56134+7.34272+8.67475+7.35511C8.91616+7.38814+9.16225+7.39998+9.39678+7.47127C8.73063+8.14459+8.05649+8.81212+7.38758+9.48378C7.11451+9.75355+6.84777+10.0305+6.5703+10.2964C6.58764+10.2022+6.63664+10.1197+6.68123+10.0379C7.13736+9.21842+7.61385+8.40995+8.13246+7.62845C8.19853+7.53706+8.25331+7.43686+8.33286+7.35676Z" opacity="1" fill="#327fea"/>
<path opacity="1" d="M8.88946+10.2053C9.17271+10.0789+9.53084+10.1453+9.74583+10.3707C10.05+10.6562+10.0426+11.1894+9.74032+11.474C8.32736+12.8856+6.91604+14.2988+5.50225+15.7107C5.34865+15.8726+5.18073+16.0209+5.05218+16.2054C4.76149+15.7503+4.47108+15.2959+4.17929+14.8419C4.80444+14.1978+5.44747+13.5705+6.08032+12.9329C6.85823+12.1545+7.6367+11.3765+8.41489+10.5978C8.56381+10.4563+8.69429+10.2851+8.88946+10.2053Z" fill="#327fea"/>
</g>
<g opacity="1">
<path opacity="1" d="M16.6532+12.1374C17.8138+10.9755+18.9762+9.81631+20.1357+8.65411C20.5808+8.92993+21.0264+9.20383+21.4727+9.47717C21.3119+9.6784+21.1217+9.85209+20.9417+10.0349C19.9785+11.0008+19.0104+11.9612+18.0505+12.931L18.0469+12.9277C17.917+12.8314+17.7546+12.8002+17.6084+12.7397C17.427+12.6926+17.253+12.6056+17.0628+12.6059C16.9175+12.4575+16.7881+12.2954+16.6532+12.1374Z" fill="#5393ed"/>
<path fill="#5393ed" d="M0.567735+14.8755C0.954491+13.9291+1.56367+13.0813+2.30002+12.3747C2.58134+12.6778+2.839+13.0012+3.09583+13.3255C3.16217+13.4078+3.21474+13.5044+3.30338+13.5669C2.47069+14.3652+1.88546+15.4217+1.66331+16.5547C1.65093+16.5588+1.62615+16.5632+1.61349+16.5671C1.31289+16.2051+1.06157+15.8037+0.83695+15.3897C0.743908+15.2196+0.667934+15.0412+0.567735+14.8755Z" opacity="1"/>
</g>
<g opacity="1">
<path d="M9.05022+19.7354C11.5863+17.2057+14.116+14.6671+16.6532+12.1368C16.7881+12.2948+16.918+12.457+17.0631+12.6054C17.1625+12.7496+17.2858+12.8754+17.389+13.0174C17.4697+13.1275+17.5734+13.2242+17.6241+13.3552C15.1406+15.8384+12.6587+18.3214+10.1753+20.8038C9.80309+21.1498+9.36981+21.4306+8.89799+21.6191C8.48426+21.2544+8.13164+20.8266+7.78425+20.3988C8.25551+20.2948+8.69815+20.0652+9.05022+19.7354Z" fill="#3581ea" opacity="1"/>
<path fill="#3581ea" opacity="1" d="M15.711+17.419C15.8968+17.2346+16.1828+17.1534+16.4368+17.2217C16.6562+17.2707+16.847+17.4248+16.9469+17.6263C17.0923+17.9126+17.0369+18.2867+16.8107+18.5163C16.0762+19.2548+15.338+19.9898+14.6027+20.7245C14.4059+20.918+14.2162+21.1195+14.0142+21.3053C13.8688+21.3359+13.7543+21.4372+13.6274+21.5096C13.2963+21.7105+12.9651+21.915+12.6274+22.1041C12.0636+22.4455+11.3892+22.6552+10.7274+22.5572C10.6438+22.5468+10.5532+22.5426+10.486+22.4851C10.8799+22.2236+11.2328+21.9065+11.5596+21.5679C12.9434+20.1869+14.3277+18.8036+15.711+17.419Z"/>
</g>
<path d="M17.0631+12.6059C17.2533+12.6056+17.427+12.6929+17.6087+12.7397C17.7548+12.8002+17.9178+12.8314+18.0472+12.9277C17.9093+13.0733+17.7637+13.2107+17.6241+13.3557C17.5732+13.2242+17.4694+13.13+17.389+13.018C17.2852+12.8762+17.1627+12.7501+17.0631+12.6059Z" opacity="1" fill="#4188eb"/>
<path opacity="1" fill="#4188ec" d="M3.82419+15.2904C3.93265+15.1337+4.05625+14.9867+4.17984+14.8411C4.47191+15.2953+4.76259+15.7495+5.053+16.2045C4.76149+16.6023+4.59275+17.0815+4.5454+17.571C4.2905+17.6497+4.03312+17.7298+3.76474+17.7416C3.53984+17.7579+3.31742+17.7122+3.09858+17.6665C3.09445+17.7527+3.08619+17.8363+3.07766+17.9225C3.01902+16.9932+3.29347+16.0523+3.82419+15.2904Z"/>
<path d="M0.518737+20.4137C-0.188159+18.655-0.173294+16.6202+0.567736+14.8755C0.667934+15.0418+0.743634+15.2196+0.836676+15.3886C1.0613+15.8026+1.31262+16.204+1.61322+16.5668C1.62588+16.5621+1.65065+16.5577+1.66304+16.5544C1.48989+17.3576+1.50861+18.1991+1.69112+18.9991C1.41777+19.3919+1.11855+19.7657+0.800615+20.1227C0.713628+20.2265+0.619211+20.3234+0.518737+20.4137Z" opacity="1" fill="#78aaf1"/>
<g opacity="1">
<path d="M3.76418+17.7416C4.03257+17.7298+4.2905+17.6497+4.54513+17.571C4.53577+17.8019+4.54127+18.0343+4.58422+18.2619C4.53632+18.3156+4.49035+18.3723+4.45429+18.4364C4.28803+18.7202+4.11075+18.9994+3.96871+19.2966C3.92687+19.3825+3.8787+19.4681+3.87925+19.5661C3.87429+19.7729+3.88696+19.979+3.87154+20.1852C3.39505+19.5301+3.11124+18.7334+3.07656+17.9225C3.08509+17.8363+3.09335+17.7529+3.09748+17.6665C3.31687+17.7122+3.53929+17.7579+3.76418+17.7416Z" opacity="1" fill="#5a97ee"/>
<path fill="#5a97ee" opacity="1" d="M0.80089+20.1227C1.11883+19.7657+1.41805+19.3919+1.69139+18.9991C1.99667+20.3286+2.79303+21.5376+3.89687+22.3392L3.89659+22.3425C3.86493+22.5248+3.8842+22.71+3.88007+22.8942C3.87594+23.3131+3.88751+23.7332+3.87429+24.1527C2.36333+23.3525+1.14746+22.005+0.519287+20.4137C0.619211+20.3234+0.713628+20.2265+0.80089+20.1227Z"/>
</g>
<g opacity="1">
<path d="M4.45456+18.4359C4.49062+18.3728+4.53632+18.3153+4.58449+18.2614C4.67891+18.7541+4.90766+19.2218+5.2501+19.5898C5.87414+20.2816+6.87502+20.6036+7.7848+20.3986C8.13274+20.8255+8.48481+21.253+8.89854+21.618C7.97666+21.9979+6.91989+22.0345+5.97296+21.7201C5.13366+21.4479+4.38685+20.9001+3.87209+20.1836C3.88778+19.9774+3.87512+19.7712+3.8798+19.5645C3.87952+19.467+3.92742+19.3809+3.96926+19.2953C4.11103+18.9985+4.28803+18.7202+4.45456+18.4359Z" fill="#468bec" opacity="1"/>
<path d="M13.6272+21.512C13.7541+21.4394+13.8686+21.3383+14.0142+21.3072C13.6797+21.6554+13.3318+21.991+12.9927+22.334C12.6136+22.7092+12.2464+23.0995+11.8239+23.4293C10.968+24.1103+9.95421+24.592+8.88561+24.826C7.20535+25.2018+5.39296+24.9653+3.87402+24.1513C3.88751+23.7318+3.87567+23.3115+3.88007+22.8922C3.88393+22.7086+3.86493+22.5234+3.89632+22.3411C4.78241+22.9891+5.85377+23.3792+6.95072+23.4417C8.19055+23.5204+9.45459+23.1796+10.4863+22.4857C10.5529+22.5437+10.6438+22.5482+10.7272+22.5586C11.3895+22.6561+12.0636+22.4474+12.6274+22.1055C12.9654+21.9167+13.296+21.7138+13.6272+21.512Z" opacity="1" fill="#468bec"/>
</g>
</g>
<g opacity="1">
<path d="M32.9044+5.48878C29.7523+5.48878+27.1969+8.0441+27.1969+11.1962C27.1969+14.3484+29.7523+16.9037+32.9044+16.9037C34.4805+16.9037+35.9072+16.2647+36.94+15.2319L35.5952+13.8871C34.9067+14.5756+33.9551+15.0012+32.9044+15.0012C30.803+15.0012+29.0994+13.2977+29.0994+11.1962C29.0994+9.09481+30.803+7.39127+32.9044+7.39127C33.9551+7.39127+34.9067+7.81685+35.5952+8.50541L36.94+7.16059C35.9072+6.12774+34.4805+5.48878+32.9044+5.48878Z" fill="#323232" opacity="1"/>
<path opacity="1" fill="#323232" d="M38.462+5.48878L40.3645+5.48878L40.3645+5.48878L40.3645+16.9037L40.3645+16.9037L38.462+16.9037L38.462+16.9037L38.462+5.48878L38.462+5.48878Z"/>
<path opacity="1" d="M42.8378+5.48878C42.3124+5.48878+41.8865+5.91467+41.8865+6.44002C41.8865+6.96538+42.3124+7.39127+42.8378+7.39127C43.3631+7.39127+43.789+6.96538+43.789+6.44002C43.789+5.91467+43.3631+5.48878+42.8378+5.48878ZM41.8865+9.29375L41.8865+16.9037L43.789+16.9037L43.789+9.29375L41.8865+9.29375Z" fill="#323232"/>
<path d="M45.311+9.29375L45.311+13.0987L45.311+20.7087L47.2135+20.7087L47.2135+16.39C47.7737+16.7147+48.4219+16.9037+49.116+16.9037C51.2174+16.9037+52.9209+15.2002+52.9209+13.0987C52.9209+10.9973+51.2174+9.29375+49.116+9.29375C48.4219+9.29375+47.7737+9.4828+47.2135+9.80742L47.2135+9.29375L45.311+9.29375ZM49.116+11.1962C50.1667+11.1962+51.0184+12.048+51.0184+13.0987C51.0184+14.1494+50.1667+15.0012+49.116+15.0012C48.0652+15.0012+47.2135+14.1494+47.2135+13.0987C47.2135+12.048+48.0652+11.1962+49.116+11.1962Z" opacity="1" fill="#323232"/>
<path d="M60.1504+5.48878C56.9982+5.48878+54.4429+8.0441+54.4429+11.1962C54.4429+14.3484+56.9982+16.9037+60.1504+16.9037C61.7264+16.9037+63.1532+16.2647+64.186+15.2319L62.8412+13.8871C62.1526+14.5756+61.2011+15.0012+60.1504+15.0012C58.0489+15.0012+56.3454+13.2977+56.3454+11.1962C56.3454+9.09481+58.0489+7.39127+60.1504+7.39127C61.2011+7.39127+62.1526+7.81685+62.8412+8.50541L64.186+7.16059C63.1532+6.12774+61.7264+5.48878+60.1504+5.48878Z" fill="#323232" opacity="1"/>
<path d="M71.4155+5.48878C68.2633+5.48878+65.708+8.0441+65.708+11.1962C65.708+14.3484+68.2633+16.9037+71.4155+16.9037C72.9915+16.9037+74.4183+16.2647+75.4511+15.2319L74.1063+13.8871C73.4177+14.5756+72.4662+15.0012+71.4155+15.0012C69.314+15.0012+67.6105+13.2977+67.6105+11.1962C67.6105+9.09481+69.314+7.39127+71.4155+7.39127C72.4662+7.39127+73.4177+7.81685+74.1063+8.50541L75.4511+7.16059C74.4183+6.12774+72.9915+5.48878+71.4155+5.48878Z" opacity="1" fill="#323232"/>
</g>
</g>
</g>
</svg>
